REM DIRINDEX 1\2,1\3,1\4
REM DIRNAME cjc151,folder01,folder02,folder03
TITLE ""
FILE "128 128_TOEFL_3900.mp3" MP3
  TRACK 01 AUDIO
    TITLE "2:cjc151_5558"
    INDEX 01 00:00:00
  TRACK 02 AUDIO
    TITLE "0:"
    INDEX 01 00:01:22
  TRACK 03 AUDIO
    TITLE "3:cjc151_5559"
    INDEX 01 00:03:02
  TRACK 04 AUDIO
    TITLE "0:"
    INDEX 01 00:07:00
  TRACK 05 AUDIO
    TITLE "2:cjc151_5560"
    INDEX 01 00:08:52
  TRACK 06 AUDIO
    TITLE "0:"
    INDEX 01 00:10:02
  TRACK 07 AUDIO
    TITLE "3:cjc151_5561"
    INDEX 01 00:11:54
  TRACK 08 AUDIO
    TITLE "0:"
    INDEX 01 00:16:34
  TRACK 09 AUDIO
    TITLE "2:cjc151_5562"
    INDEX 01 00:18:11
  TRACK 10 AUDIO
    TITLE "0:"
    INDEX 01 00:19:09
  TRACK 11 AUDIO
    TITLE "3:cjc151_5563"
    INDEX 01 00:20:63
  TRACK 12 AUDIO
    TITLE "0:"
    INDEX 01 00:24:06
  TRACK 13 AUDIO
    TITLE "2:cjc151_5564"
    INDEX 01 00:25:60
  TRACK 14 AUDIO
    TITLE "0:"
    INDEX 01 00:27:04
  TRACK 15 AUDIO
    TITLE "3:cjc151_5565"
    INDEX 01 00:28:59
  TRACK 16 AUDIO
    TITLE "0:"
    INDEX 01 00:32:64
  TRACK 17 AUDIO
    TITLE "2:cjc151_5566"
    INDEX 01 00:34:42
  TRACK 18 AUDIO
    TITLE "0:"
    INDEX 01 00:35:70
  TRACK 19 AUDIO
    TITLE "3:cjc151_5567"
    INDEX 01 00:37:50
  TRACK 20 AUDIO
    TITLE "0:"
    INDEX 01 00:42:65
  TRACK 21 AUDIO
    TITLE "2:cjc151_5568"
    INDEX 01 00:44:44
  TRACK 22 AUDIO
    TITLE "0:"
    INDEX 01 00:46:06
  TRACK 23 AUDIO
    TITLE "3:cjc151_5569"
    INDEX 01 00:47:60
  TRACK 24 AUDIO
    TITLE "0:"
    INDEX 01 00:52:53
  TRACK 25 AUDIO
    TITLE "2:cjc151_5570"
    INDEX 01 00:54:32
  TRACK 26 AUDIO
    TITLE "0:"
    INDEX 01 00:55:48
  TRACK 27 AUDIO
    TITLE "3:cjc151_5571"
    INDEX 01 00:57:27
  TRACK 28 AUDIO
    TITLE "0:"
    INDEX 01 01:00:72
  TRACK 29 AUDIO
    TITLE "2:cjc151_5572"
    INDEX 01 01:02:54
  TRACK 30 AUDIO
    TITLE "0:"
    INDEX 01 01:03:67
  TRACK 31 AUDIO
    TITLE "3:cjc151_5573"
    INDEX 01 01:05:44
  TRACK 32 AUDIO
    TITLE "0:"
    INDEX 01 01:09:44
  TRACK 33 AUDIO
    TITLE "2:cjc151_5574"
    INDEX 01 01:11:21
  TRACK 34 AUDIO
    TITLE "0:"
    INDEX 01 01:12:58
  TRACK 35 AUDIO
    TITLE "3:cjc151_5575"
    INDEX 01 01:14:37
  TRACK 36 AUDIO
    TITLE "0:"
    INDEX 01 01:19:21
  TRACK 37 AUDIO
    TITLE "2:cjc151_5576"
    INDEX 01 01:21:00
  TRACK 38 AUDIO
    TITLE "0:"
    INDEX 01 01:22:15
  TRACK 39 AUDIO
    TITLE "3:cjc151_5577"
    INDEX 01 01:23:67
  TRACK 40 AUDIO
    TITLE "0:"
    INDEX 01 01:27:10
  TRACK 41 AUDIO
    TITLE "2:cjc151_5578"
    INDEX 01 01:28:65
  TRACK 42 AUDIO
    TITLE "0:"
    INDEX 01 01:30:01
  TRACK 43 AUDIO
    TITLE "3:cjc151_5579"
    INDEX 01 01:31:55
  TRACK 44 AUDIO
    TITLE "0:"
    INDEX 01 01:35:49
  TRACK 45 AUDIO
    TITLE "2:cjc151_5580"
    INDEX 01 01:37:24
  TRACK 46 AUDIO
    TITLE "0:"
    INDEX 01 01:38:51
  TRACK 47 AUDIO
    TITLE "3:cjc151_5581"
    INDEX 01 01:40:31
  TRACK 48 AUDIO
    TITLE "0:"
    INDEX 01 01:45:08
  TRACK 49 AUDIO
    TITLE "2:cjc151_5582"
    INDEX 01 01:46:65
  TRACK 50 AUDIO
    TITLE "0:"
    INDEX 01 01:47:72
  TRACK 51 AUDIO
    TITLE "3:cjc151_5583"
    INDEX 01 01:49:53
  TRACK 52 AUDIO
    TITLE "0:"
    INDEX 01 01:53:61
  TRACK 53 AUDIO
    TITLE "2:cjc151_5584"
    INDEX 01 01:55:40
  TRACK 54 AUDIO
    TITLE "0:"
    INDEX 01 01:56:57
  TRACK 55 AUDIO
    TITLE "3:cjc151_5585"
    INDEX 01 01:58:34
  TRACK 56 AUDIO
    TITLE "0:"
    INDEX 01 02:03:08
  TRACK 57 AUDIO
    TITLE "2:cjc151_5586"
    INDEX 01 02:04:62
  TRACK 58 AUDIO
    TITLE "0:"
    INDEX 01 02:06:01
  TRACK 59 AUDIO
    TITLE "3:cjc151_5587"
    INDEX 01 02:07:55
  TRACK 60 AUDIO
    TITLE "0:"
    INDEX 01 02:11:19
  TRACK 61 AUDIO
    TITLE "2:cjc151_5588"
    INDEX 01 02:12:72
  TRACK 62 AUDIO
    TITLE "0:"
    INDEX 01 02:14:08
  TRACK 63 AUDIO
    TITLE "3:cjc151_5589"
    INDEX 01 02:15:62
  TRACK 64 AUDIO
    TITLE "0:"
    INDEX 01 02:19:64
  TRACK 65 AUDIO
    TITLE "2:cjc151_5590"
    INDEX 01 02:21:45
  TRACK 66 AUDIO
    TITLE "0:"
    INDEX 01 02:22:53
  TRACK 67 AUDIO
    TITLE "3:cjc151_5591"
    INDEX 01 02:24:32
  TRACK 68 AUDIO
    TITLE "0:"
    INDEX 01 02:27:69
  TRACK 69 AUDIO
    TITLE "2:cjc151_5592"
    INDEX 01 02:29:47
  TRACK 70 AUDIO
    TITLE "0:"
    INDEX 01 02:30:58
  TRACK 71 AUDIO
    TITLE "3:cjc151_5593"
    INDEX 01 02:32:37
  TRACK 72 AUDIO
    TITLE "0:"
    INDEX 01 02:35:38
  TRACK 73 AUDIO
    TITLE "2:cjc151_5594"
    INDEX 01 02:37:15
  TRACK 74 AUDIO
    TITLE "0:"
    INDEX 01 02:38:30
  TRACK 75 AUDIO
    TITLE "3:cjc151_5595"
    INDEX 01 02:40:09
  TRACK 76 AUDIO
    TITLE "0:"
    INDEX 01 02:43:74
  TRACK 77 AUDIO
    TITLE "2:cjc151_5596"
    INDEX 01 02:45:54
  TRACK 78 AUDIO
    TITLE "0:"
    INDEX 01 02:46:49
  TRACK 79 AUDIO
    TITLE "3:cjc151_5597"
    INDEX 01 02:48:28
  TRACK 80 AUDIO
    TITLE "0:"
    INDEX 01 02:51:31
  TRACK 81 AUDIO
    TITLE "2:cjc151_5598"
    INDEX 01 02:53:10
  TRACK 82 AUDIO
    TITLE "0:"
    INDEX 01 02:54:25
  TRACK 83 AUDIO
    TITLE "3:cjc151_5599"
    INDEX 01 02:56:02
  TRACK 84 AUDIO
    TITLE "0:"
    INDEX 01 03:00:28
  TRACK 85 AUDIO
    TITLE "2:cjc151_5600"
    INDEX 01 03:02:07
  TRACK 86 AUDIO
    TITLE "0:"
    INDEX 01 03:03:34
  TRACK 87 AUDIO
    TITLE "3:cjc151_5601"
    INDEX 01 03:05:15
  TRACK 88 AUDIO
    TITLE "0:"
    INDEX 01 03:09:44
